# xmcd
#
# Track frame offsets:
#	150
#	7227
#	26358
#	45651
#	63069
#	87081
#	103923
#	125652
#	151937
#	168147
#	190490
#	205802
#	223282
#	252286
#	268609
#	285491
#	302833
#
# Disc length: 4222 seconds
#
# Revision: 0
# Processed by: cddbd v1.5.2PL0 Copyright (c) Steve Scherf et al.
# Submitted via: audiograbber 1.83.01
#
DISCID=ef107c11
DTITLE=Music From Home - Home Is Where The Heart Is
DYEAR=2013
DGENRE=
TTITLE0=Returning Home -Pontus Swanberg
TTITLE1=This Is Our Town -Citzen K
TTITLE2=Bring down the clouds, we?re done with the rain -Pelle Johanson
TTITLE3=Spiders -A Sisterers Or 2
TTITLE4=Sometimes We Get Lost -Tobias Backstrand
TTITLE5=Please, Blame Me -Mick Richard
TTITLE6=My Bluesy Fire -Klas Bohlin
TTITLE7=Home To Be -Mikael Persson
TTITLE8=All These Passing Strangers -Jag Androa
TTITLE9=Song Of October -The Fantastic People
TTITLE10=What You Say -Mudfish
TTITLE11=Playboy -Ulrik Arturen
TTITLE12=Row -The Stomping Academy
TTITLE13=This Country Girl -Cina Samuelson
TTITLE14=I Begin To Softly Cry -Rambling Nicholas Heron
TTITLE15=You Are My Home -Flip
TTITLE16=I'm Sorry -Berra Warlsson
EXTD=
EXTT0=
EXTT1=
EXTT2=
EXTT3=
EXTT4=
EXTT5=
EXTT6=
EXTT7=
EXTT8=
EXTT9=
EXTT10=
EXTT11=
EXTT12=
EXTT13=
EXTT14=
EXTT15=
EXTT16=
PLAYORDER=
